<svg width="25" height="24" viewBox="0 0 25 24" fill="none" xmlns="http://www.w3.org/2000/svg">
<path d="M11.9726 11.9032C13.5051 11.9032 14.7473 10.6609 14.7473 9.1285C14.7473 7.59605 13.5051 6.35376 11.9726 6.35376C10.4402 6.35376 9.19788 7.59605 9.19788 9.1285C9.19788 10.6609 10.4402 11.9032 11.9726 11.9032Z" fill="#50E6FF"/>
<path d="M11.9726 0.155762C7.01684 0.155762 3 4.1726 3 9.1284C3 14.0842 7.01684 18.101 11.9726 18.101C16.9284 18.101 20.9453 14.0842 20.9453 9.1284C20.9411 4.1726 16.9242 0.155762 11.9726 0.155762ZM11.9726 13.1873C9.72842 13.1873 7.91368 11.3684 7.91368 9.1284C7.91368 6.88418 9.73263 5.06945 11.9726 5.06945C14.2126 5.06945 16.0316 6.88839 16.0316 9.1284C16.0316 11.3726 14.2126 13.1873 11.9726 13.1873Z" fill="#0078D4"/>
<path d="M11.9726 3.67159C12.4959 3.67159 12.92 3.24744 12.92 2.72422C12.92 2.20101 12.4959 1.77686 11.9726 1.77686C11.4494 1.77686 11.0253 2.20101 11.0253 2.72422C11.0253 3.24744 11.4494 3.67159 11.9726 3.67159Z" fill="#50E6FF"/>
<path d="M11.9726 20.0295C9.21893 20.0295 6.70946 19.0021 4.79367 17.3179L3.2063 23.8863H20.7431L19.1558 17.3179C17.2316 19.0021 14.7263 20.0295 11.9726 20.0295Z" fill="#0078D4"/>
</svg>
