<svg width="60" height="60" viewBox="0 0 60 60" fill="none" xmlns="http://www.w3.org/2000/svg">
<path d="M3.08496 53.7607V46.5098C5.61621 48.3555 8.56934 49.2783 11.9443 49.2783C14.0713 49.2783 15.7236 48.8213 16.9014 47.9072C18.0967 46.9932 18.6943 45.7188 18.6943 44.084C18.6943 42.3965 17.9561 41.0957 16.4795 40.1816C15.0205 39.2676 13.0078 38.8105 10.4414 38.8105H6.93457V32.4297H10.1777C15.0996 32.4297 17.5605 30.7949 17.5605 27.5254C17.5605 24.4492 15.6709 22.9111 11.8916 22.9111C9.36035 22.9111 6.89941 23.7285 4.50879 25.3633V18.5605C7.16309 17.2246 10.2568 16.5566 13.79 16.5566C17.6572 16.5566 20.6631 17.4268 22.8076 19.167C24.9697 20.9072 26.0508 23.166 26.0508 25.9434C26.0508 30.8828 23.5459 33.9766 18.5361 35.2246V35.3564C21.208 35.6904 23.3174 36.666 24.8643 38.2832C26.4111 39.8828 27.1846 41.8516 27.1846 44.1895C27.1846 47.7227 25.8926 50.5176 23.3086 52.5742C20.7246 54.6309 17.1562 55.6592 12.6035 55.6592C8.70117 55.6592 5.52832 55.0264 3.08496 53.7607Z" fill="#0078d4"/>
</svg>
