<svg width="60" height="60" viewBox="0 0 60 60" fill="none" xmlns="http://www.w3.org/2000/svg">
<path d="M11.3115 48.0918H27.3428V55H2.18848V52.1523C2.18848 50.2188 2.51367 48.4873 3.16406 46.958C3.81445 45.4111 4.63184 44.0312 5.61621 42.8184C6.60059 41.5879 7.67285 40.5068 8.83301 39.5752C10.0107 38.626 11.127 37.7734 12.1816 37.0176C13.2891 36.2266 14.2559 35.4707 15.082 34.75C15.9258 34.0293 16.6289 33.3174 17.1914 32.6143C17.7715 31.8936 18.2021 31.1729 18.4834 30.4521C18.7646 29.7139 18.9053 28.9316 18.9053 28.1055C18.9053 26.4883 18.4482 25.2666 17.5342 24.4404C16.6201 23.6143 15.2227 23.2012 13.3418 23.2012C10.0898 23.2012 6.97852 24.4932 4.00781 27.0771V19.7471C7.29492 17.6201 11.0039 16.5566 15.1348 16.5566C17.0508 16.5566 18.7646 16.8115 20.2764 17.3213C21.8057 17.8135 23.0977 18.5254 24.1523 19.457C25.207 20.3887 26.0068 21.5225 26.5518 22.8584C27.1143 24.1768 27.3955 25.6533 27.3955 27.2881C27.3955 29.0283 27.123 30.5752 26.5781 31.9287C26.0508 33.2822 25.3389 34.5127 24.4424 35.6201C23.5635 36.7275 22.5439 37.7471 21.3838 38.6787C20.2236 39.5928 19.0195 40.4805 17.7715 41.3418C16.9277 41.9395 16.1104 42.5371 15.3193 43.1348C14.5459 43.7148 13.8604 44.2949 13.2627 44.875C12.665 45.4375 12.1904 45.9912 11.8389 46.5361C11.4873 47.0811 11.3115 47.5996 11.3115 48.0918Z" fill="#0078d4"/>
</svg>
